<svg width="192" height="74" viewBox="0 0 192 74" fill="none" xmlns="http://www.w3.org/2000/svg">
<path d="M36.6875 47.2812L37.7188 47.5L34.0938 59H1.28125V57.8438H2.875C4.66667 57.8438 5.94792 57.2604 6.71875 56.0938C7.15625 55.4271 7.375 53.8854 7.375 51.4688V24.125C7.375 21.4792 7.08333 19.8229 6.5 19.1562C5.6875 18.2396 4.47917 17.7812 2.875 17.7812H1.28125V16.625H20.4688V17.7812C18.2188 17.7604 16.6354 17.9688 15.7188 18.4062C14.8229 18.8438 14.2083 19.3958 13.875 20.0625C13.5417 20.7292 13.375 22.3229 13.375 24.8438V51.4688C13.375 53.1979 13.5417 54.3854 13.875 55.0312C14.125 55.4688 14.5104 55.7917 15.0312 56C15.5521 56.2083 17.1771 56.3125 19.9062 56.3125H23C26.25 56.3125 28.5312 56.0729 29.8438 55.5938C31.1562 55.1146 32.3542 54.2708 33.4375 53.0625C34.5208 51.8333 35.6042 49.9062 36.6875 47.2812ZM48.4062 14.5625C49.2812 14.5625 50.0208 14.875 50.625 15.5C51.25 16.1042 51.5625 16.8438 51.5625 17.7188C51.5625 18.5938 51.25 19.3438 50.625 19.9688C50.0208 20.5938 49.2812 20.9062 48.4062 20.9062C47.5312 20.9062 46.7812 20.5938 46.1562 19.9688C45.5312 19.3438 45.2188 18.5938 45.2188 17.7188C45.2188 16.8438 45.5208 16.1042 46.125 15.5C46.75 14.875 47.5104 14.5625 48.4062 14.5625ZM51 29.5312V52.5312C51 54.3229 51.125 55.5208 51.375 56.125C51.6458 56.7083 52.0312 57.1458 52.5312 57.4375C53.0521 57.7292 53.9896 57.875 55.3438 57.875V59H41.4375V57.875C42.8333 57.875 43.7708 57.7396 44.25 57.4688C44.7292 57.1979 45.1042 56.75 45.375 56.125C45.6667 55.5 45.8125 54.3021 45.8125 52.5312V41.5C45.8125 38.3958 45.7188 36.3854 45.5312 35.4688C45.3854 34.8021 45.1562 34.3438 44.8438 34.0938C44.5312 33.8229 44.1042 33.6875 43.5625 33.6875C42.9792 33.6875 42.2708 33.8438 41.4375 34.1562L41 33.0312L49.625 29.5312H51ZM66.7812 35.3125C69.5521 31.4583 72.5417 29.5312 75.75 29.5312C78.6875 29.5312 81.25 30.7917 83.4375 33.3125C85.625 35.8125 86.7188 39.2396 86.7188 43.5938C86.7188 48.6771 85.0312 52.7708 81.6562 55.875C78.7604 58.5417 75.5312 59.875 71.9688 59.875C70.3021 59.875 68.6042 59.5729 66.875 58.9688C65.1667 58.3646 63.4167 57.4583 61.625 56.25V26.5938C61.625 23.3438 61.5417 21.3438 61.375 20.5938C61.2292 19.8438 60.9896 19.3333 60.6562 19.0625C60.3229 18.7917 59.9062 18.6562 59.4062 18.6562C58.8229 18.6562 58.0938 18.8229 57.2188 19.1562L56.7812 18.0625L65.375 14.5625H66.7812V35.3125ZM66.7812 37.3125V54.4375C67.8438 55.4792 68.9375 56.2708 70.0625 56.8125C71.2083 57.3333 72.375 57.5938 73.5625 57.5938C75.4583 57.5938 77.2188 56.5521 78.8438 54.4688C80.4896 52.3854 81.3125 49.3542 81.3125 45.375C81.3125 41.7083 80.4896 38.8958 78.8438 36.9375C77.2188 34.9583 75.3646 33.9688 73.2812 33.9688C72.1771 33.9688 71.0729 34.25 69.9688 34.8125C69.1354 35.2292 68.0729 36.0625 66.7812 37.3125ZM99.3125 29.5312V35.9688C101.708 31.6771 104.167 29.5312 106.688 29.5312C107.833 29.5312 108.781 29.8854 109.531 30.5938C110.281 31.2812 110.656 32.0833 110.656 33C110.656 33.8125 110.385 34.5 109.844 35.0625C109.302 35.625 108.656 35.9062 107.906 35.9062C107.177 35.9062 106.354 35.5521 105.438 34.8438C104.542 34.1146 103.875 33.75 103.438 33.75C103.062 33.75 102.656 33.9583 102.219 34.375C101.281 35.2292 100.312 36.6354 99.3125 38.5938V52.3125C99.3125 53.8958 99.5104 55.0938 99.9062 55.9062C100.177 56.4688 100.656 56.9375 101.344 57.3125C102.031 57.6875 103.021 57.875 104.312 57.875V59H89.6562V57.875C91.1146 57.875 92.1979 57.6458 92.9062 57.1875C93.4271 56.8542 93.7917 56.3229 94 55.5938C94.1042 55.2396 94.1562 54.2292 94.1562 52.5625V41.4688C94.1562 38.1354 94.0833 36.1562 93.9375 35.5312C93.8125 34.8854 93.5625 34.4167 93.1875 34.125C92.8333 33.8333 92.3854 33.6875 91.8438 33.6875C91.1979 33.6875 90.4688 33.8438 89.6562 34.1562L89.3438 33.0312L98 29.5312H99.3125ZM128.469 54.875C125.531 57.1458 123.688 58.4583 122.938 58.8125C121.812 59.3333 120.615 59.5938 119.344 59.5938C117.365 59.5938 115.729 58.9167 114.438 57.5625C113.167 56.2083 112.531 54.4271 112.531 52.2188C112.531 50.8229 112.844 49.6146 113.469 48.5938C114.323 47.1771 115.802 45.8438 117.906 44.5938C120.031 43.3438 123.552 41.8229 128.469 40.0312V38.9062C128.469 36.0521 128.01 34.0938 127.094 33.0312C126.198 31.9688 124.885 31.4375 123.156 31.4375C121.844 31.4375 120.802 31.7917 120.031 32.5C119.24 33.2083 118.844 34.0208 118.844 34.9375L118.906 36.75C118.906 37.7083 118.656 38.4479 118.156 38.9688C117.677 39.4896 117.042 39.75 116.25 39.75C115.479 39.75 114.844 39.4792 114.344 38.9375C113.865 38.3958 113.625 37.6562 113.625 36.7188C113.625 34.9271 114.542 33.2812 116.375 31.7812C118.208 30.2812 120.781 29.5312 124.094 29.5312C126.635 29.5312 128.719 29.9583 130.344 30.8125C131.573 31.4583 132.479 32.4688 133.062 33.8438C133.438 34.7396 133.625 36.5729 133.625 39.3438V49.0625C133.625 51.7917 133.677 53.4688 133.781 54.0938C133.885 54.6979 134.052 55.1042 134.281 55.3125C134.531 55.5208 134.812 55.625 135.125 55.625C135.458 55.625 135.75 55.5521 136 55.4062C136.438 55.1354 137.281 54.375 138.531 53.125V54.875C136.198 58 133.969 59.5625 131.844 59.5625C130.823 59.5625 130.01 59.2083 129.406 58.5C128.802 57.7917 128.49 56.5833 128.469 54.875ZM128.469 52.8438V41.9375C125.323 43.1875 123.292 44.0729 122.375 44.5938C120.729 45.5104 119.552 46.4688 118.844 47.4688C118.135 48.4688 117.781 49.5625 117.781 50.75C117.781 52.25 118.229 53.5 119.125 54.5C120.021 55.4792 121.052 55.9688 122.219 55.9688C123.802 55.9688 125.885 54.9271 128.469 52.8438ZM149.062 29.5312V35.9688C151.458 31.6771 153.917 29.5312 156.438 29.5312C157.583 29.5312 158.531 29.8854 159.281 30.5938C160.031 31.2812 160.406 32.0833 160.406 33C160.406 33.8125 160.135 34.5 159.594 35.0625C159.052 35.625 158.406 35.9062 157.656 35.9062C156.927 35.9062 156.104 35.5521 155.188 34.8438C154.292 34.1146 153.625 33.75 153.188 33.75C152.812 33.75 152.406 33.9583 151.969 34.375C151.031 35.2292 150.062 36.6354 149.062 38.5938V52.3125C149.062 53.8958 149.26 55.0938 149.656 55.9062C149.927 56.4688 150.406 56.9375 151.094 57.3125C151.781 57.6875 152.771 57.875 154.062 57.875V59H139.406V57.875C140.865 57.875 141.948 57.6458 142.656 57.1875C143.177 56.8542 143.542 56.3229 143.75 55.5938C143.854 55.2396 143.906 54.2292 143.906 52.5625V41.4688C143.906 38.1354 143.833 36.1562 143.688 35.5312C143.562 34.8854 143.312 34.4167 142.938 34.125C142.583 33.8333 142.135 33.6875 141.594 33.6875C140.948 33.6875 140.219 33.8438 139.406 34.1562L139.094 33.0312L147.75 29.5312H149.062ZM160.375 30.375H173.719V31.5312H173.062C172.125 31.5312 171.417 31.7396 170.938 32.1562C170.479 32.5521 170.25 33.0521 170.25 33.6562C170.25 34.4688 170.594 35.5938 171.281 37.0312L178.25 51.4688L184.656 35.6562C185.01 34.8021 185.188 33.9583 185.188 33.125C185.188 32.75 185.115 32.4688 184.969 32.2812C184.802 32.0521 184.542 31.875 184.188 31.75C183.833 31.6042 183.208 31.5312 182.312 31.5312V30.375H191.625V31.5312C190.854 31.6146 190.26 31.7812 189.844 32.0312C189.427 32.2812 188.969 32.75 188.469 33.4375C188.281 33.7292 187.927 34.5312 187.406 35.8438L175.75 64.4062C174.625 67.1771 173.146 69.2708 171.312 70.6875C169.5 72.1042 167.75 72.8125 166.062 72.8125C164.833 72.8125 163.823 72.4583 163.031 71.75C162.24 71.0417 161.844 70.2292 161.844 69.3125C161.844 68.4375 162.125 67.7292 162.688 67.1875C163.271 66.6667 164.062 66.4062 165.062 66.4062C165.75 66.4062 166.688 66.6354 167.875 67.0938C168.708 67.4062 169.229 67.5625 169.438 67.5625C170.062 67.5625 170.74 67.2396 171.469 66.5938C172.219 65.9479 172.969 64.6979 173.719 62.8438L175.75 57.875L165.469 36.2812C165.156 35.6354 164.656 34.8333 163.969 33.875C163.448 33.1458 163.021 32.6562 162.688 32.4062C162.208 32.0729 161.438 31.7812 160.375 31.5312V30.375Z" fill="#20476E"/>
<circle cx="48.5" cy="17.5" r="3.5" fill="#F3C416"/>
</svg>
